<svg xmlns="http://www.w3.org/2000/svg" viewBox="0 0 512 640" x="0px" y="0px"><g data-name="Out line"><path d="M495.79492,486.20117l-45.79907-198.4624A7.996,7.996,0,0,0,456,280V216a7.9748,7.9748,0,0,0-2.34546-5.65894A23.95309,23.95309,0,0,0,449.86914,184,23.98433,23.98433,0,0,0,432,144H393.22437l6.69555-46.86865A7.9999,7.9999,0,0,0,392,88H360V56h24a8.00008,8.00008,0,0,0,8-8V24H376V40H360V16H344V56H328V32H312V64a8.00008,8.00008,0,0,0,8,8h24V88H312a7.9999,7.9999,0,0,0-7.91992,9.13135L310.77563,144H288a8,8,0,0,0,0,16,8,8,0,0,1,0,16,8,8,0,0,0,0,16,8,8,0,0,1,0,16H208V168a7.99279,7.99279,0,0,0-4.50806-7.18921l11.93579-29.8396-14.85546-5.94238L186.58374,160H184V120H168v40h-2.58374l-13.98853-34.97119-14.85546,5.94238,11.93579,29.8396A7.99279,7.99279,0,0,0,144,168v40H48a8.00008,8.00008,0,0,0-8,8v64a8.00008,8.00008,0,0,0,8,8H61.94385L16.20508,486.20117A7.99952,7.99952,0,0,0,24,496H40a8.00081,8.00081,0,0,0,7.64648-5.64746L109.90869,288h40.03516L104.20508,486.20117A7.99952,7.99952,0,0,0,112,496h16a8.00081,8.00081,0,0,0,7.64648-5.64746L197.90869,288H306.09131l62.26221,202.35254A8.00081,8.00081,0,0,0,376,496h16a7.99952,7.99952,0,0,0,7.79492-9.79883L354.05615,288h48.03516l62.26221,202.35254A8.00081,8.00081,0,0,0,472,496h16a7.99952,7.99952,0,0,0,7.79492-9.79883ZM34.0918,480h-.03516L78.36377,288H93.16821ZM136,272H56V224h80Zm16,0V224h72v48Zm8-96h32v32H160ZM122.0918,480h-.03516l44.30713-192h14.80444ZM336,224H440v48H336Zm104-24a8.00917,8.00917,0,0,1-8,8H374.62378a23.94021,23.94021,0,0,0,0-16H432A8.00917,8.00917,0,0,1,440,200Zm0-32a8.00917,8.00917,0,0,1-8,8H374.62378a23.98235,23.98235,0,0,0,.00513-16H432A8.00917,8.00917,0,0,1,440,168ZM321.22363,104h61.55274l-5.71485,40h-50.123Zm-10.59472,56H352a8,8,0,0,1,0,16H310.62378a23.98235,23.98235,0,0,0,.00513-16Zm0,32H352a8,8,0,0,1,0,16H310.62378a23.98235,23.98235,0,0,0,.00513-16ZM240,224h80v48H240ZM381.94336,480h-.03516L322.83179,288h14.80444Zm95.96484,0L418.83179,288h14.80444l44.30713,192Z"/><rect x="264" y="240" width="32" height="16"/><rect x="80" y="240" width="32" height="16"/></g></svg>