<svg xmlns="http://www.w3.org/2000/svg"    xmlns:xlink="http://www.w3.org/1999/xlink" version="1.1" x="0px" y="0px" viewBox="0 0 51 63.75" enable-background="new 0 0 51 51" xml:space="preserve"><path   d="M31.886,26.523H19.114c-0.238,0-0.461,0.113-0.603,0.305c-0.141,0.189-0.184,0.438-0.115,0.664l0.866,2.844  c0.096,0.316,0.387,0.531,0.717,0.531h11.04c0.33,0,0.622-0.215,0.718-0.531l0.865-2.844c0.07-0.227,0.027-0.475-0.115-0.664  C32.347,26.637,32.123,26.523,31.886,26.523z M30.464,29.367h-9.929l-0.409-1.344h10.747L30.464,29.367z"/><path d="M44.338,20.227c0.113-0.773-0.315-1.766-1.895-2.016c-1.706-0.27-3.415,0.299-4.327,0.686  c-1.871-4.307-3.753-6.412-5.729-6.412H18.612c-1.976,0-3.857,2.105-5.728,6.412c-0.913-0.387-2.62-0.955-4.328-0.686  c-1.58,0.25-2.008,1.242-1.895,2.016c0.121,0.826,0.854,1.604,1.93,1.975c-0.863,0.85-1.479,1.85-1.479,2.748V30.5  c0,1.936,0.902,3.197,2.5,3.639V36.9c0,0.891,0.725,1.615,1.616,1.615h4.087c0.891,0,1.615-0.725,1.615-1.615v-2.576h17.136V36.9  c0,0.891,0.725,1.615,1.616,1.615h4.086c0.892,0,1.616-0.725,1.616-1.615v-2.762c1.598-0.441,2.5-1.703,2.5-3.639v-5.551  c0-0.898-0.617-1.898-1.478-2.748C43.484,21.83,44.217,21.053,44.338,20.227z M18.612,13.984h13.774  c0.826,0,2.527,0.893,4.811,6.617c-0.532,0.275-1.044,0.656-1.575,1.063c-0.964,0.736-1.96,1.498-3.045,1.498H18.423  c-1.086,0-2.083-0.762-3.046-1.498c-0.531-0.406-1.043-0.787-1.575-1.061C16.086,14.877,17.787,13.984,18.612,13.984z M8.146,20.008  c-0.017-0.119,0.26-0.254,0.645-0.314c1.288-0.205,2.646,0.23,3.416,0.547c-0.585,0.059-1.25,0.299-1.906,0.67  C8.987,21.039,8.196,20.35,8.146,20.008z M15.432,36.9c0,0.064-0.052,0.115-0.115,0.115h-4.087c-0.063,0-0.116-0.051-0.116-0.115  v-2.576h4.318V36.9z M39.77,37.016h-4.086c-0.064,0-0.116-0.051-0.116-0.115v-2.576h4.318V36.9  C39.885,36.965,39.834,37.016,39.77,37.016z M42.386,30.5c0,1.609-0.727,2.324-2.355,2.324H10.969c-1.629,0-2.355-0.715-2.355-2.324  v-5.551c0-1.027,2.417-3.229,3.849-3.229c0.071,0,0.134,0.008,0.188,0.021c0.531,0.133,1.155,0.609,1.815,1.113  c1.107,0.848,2.363,1.807,3.957,1.807h14.154c1.594,0,2.849-0.959,3.957-1.807c0.661-0.504,1.284-0.98,1.815-1.113  c0.054-0.014,0.117-0.021,0.188-0.021c1.433,0,3.849,2.201,3.849,3.229V30.5z M40.7,20.91c-0.656-0.371-1.321-0.611-1.907-0.67  c0.77-0.314,2.128-0.75,3.416-0.547c0.385,0.061,0.662,0.195,0.645,0.314C42.803,20.35,42.012,21.039,40.7,20.91z"/><path d="M13.273,25.184c-1.488,0-2.698,1.209-2.698,2.697s1.21,2.699,2.698,2.699s2.698-1.211,2.698-2.699  S14.761,25.184,13.273,25.184z M13.273,29.08c-0.661,0-1.198-0.539-1.198-1.199s0.538-1.197,1.198-1.197s1.198,0.537,1.198,1.197  S13.934,29.08,13.273,29.08z"/><path  d="M37.726,25.184c-1.487,0-2.698,1.209-2.698,2.697s1.211,2.699,2.698,2.699c1.488,0,2.698-1.211,2.698-2.699  S39.214,25.184,37.726,25.184z M37.726,29.08c-0.661,0-1.198-0.539-1.198-1.199s0.537-1.197,1.198-1.197s1.198,0.537,1.198,1.197  S38.387,29.08,37.726,29.08z"/></svg>