<svg xmlns="http://www.w3.org/2000/svg" xmlns:xlink="http://www.w3.org/1999/xlink" version="1.1" x="0px" y="0px" viewBox="0 0 64 80" style="enable-background:new 0 0 64 64;" xml:space="preserve"><g><path d="M57,9H7c-1.7,0-3,1.3-3,3v29c0,1.7,1.3,3,3,3h22v5H16c-0.6,0-1,0.4-1,1s0.4,1,1,1h14h4h14c0.6,0,1-0.4,1-1s-0.4-1-1-1H35   v-5h22c1.7,0,3-1.3,3-3V12C60,10.3,58.7,9,57,9z M33,49h-2v-5h2V49z M58,41c0,0.6-0.4,1-1,1H34h-4H7c-0.6,0-1-0.4-1-1V12   c0-0.6,0.4-1,1-1h50c0.6,0,1,0.4,1,1V41z"/><path d="M55,13H9c-0.6,0-1,0.4-1,1v25c0,0.6,0.4,1,1,1h46c0.6,0,1-0.4,1-1V14C56,13.4,55.6,13,55,13z M54,38H10V15h44V38z"/><path d="M17,32c0.1,0,0.3,0,0.4-0.1l25-12c0.5-0.2,0.7-0.8,0.5-1.3s-0.8-0.7-1.3-0.5l-25,12c-0.5,0.2-0.7,0.8-0.5,1.3   C16.3,31.8,16.6,32,17,32z"/><path d="M41.6,23.1l-13,6c-0.5,0.2-0.7,0.8-0.5,1.3c0.2,0.4,0.5,0.6,0.9,0.6c0.1,0,0.3,0,0.4-0.1l13-6c0.5-0.2,0.7-0.8,0.5-1.3   C42.7,23.1,42.1,22.9,41.6,23.1z"/></g></svg>