<svg xmlns="http://www.w3.org/2000/svg" viewBox="0 0 64 80" x="0px" y="0px"><path d="M52,18.57V5a1,1,0,0,0-1-1H41a1,1,0,0,0-1,1V9.68L32.6,4.2a1,1,0,0,0-1.19,0l-27,20A1,1,0,0,0,4,25v8a1,1,0,0,0,1.6.8L8,32V58a1,1,0,0,0,1,1H55a1,1,0,0,0,1-1V32l2.4,1.78A1,1,0,0,0,60,33V25a1,1,0,0,0-.4-.8ZM42,6h8V17l-8-6ZM16,57V38H28V57Zm38,0H30V37a1,1,0,0,0-1-1H15a1,1,0,0,0-1,1V57H10V30.54l22-16.3,22,16.3Zm4-26-2.32-1.72s0-.07-.08-.1L32.74,12.3l-.15-.11a1,1,0,0,0-1.19,0l-.15.11L8.41,29.2s-.05.07-.08.1L6,31V25.5L32,6.24,58,25.5Z"/><path d="M35,50H48a1,1,0,0,0,1-1V36a1,1,0,0,0-1-1H35a1,1,0,0,0-1,1V49A1,1,0,0,0,35,50Zm1-6h4.67v4H36Zm6.67,4V44H47v4ZM47,42H42.67V37H47Zm-6.33-5v5H36V37Z"/></svg>